<mxfile host="app.diagrams.net" agent="Mozilla/5.0 (Windows NT 10.0; Win64; x64) AppleWebKit/537.36 (KHTML, like Gecko) Chrome/136.0.0.0 Safari/537.36 Edg/136.0.0.0" version="27.0.6">
  <diagram name="Страница — 1" id="WKGYQiWRMjDiwxb9k2Cm">
    <mxGraphModel dx="3846" dy="1394" grid="1" gridSize="10" guides="1" tooltips="1" connect="1" arrows="1" fold="1" page="1" pageScale="1" pageWidth="827" pageHeight="1169" math="0" shadow="0">
      <root>
        <mxCell id="0" />
        <mxCell id="1" parent="0" />
        <mxCell id="aLNv6BE2xDQIH31KTYfQ-30" style="edgeStyle=orthogonalEdgeStyle;rounded=0;orthogonalLoop=1;jettySize=auto;html=1;exitX=0.5;exitY=1;exitDx=0;exitDy=0;entryX=0.5;entryY=0;entryDx=0;entryDy=0;" edge="1" parent="1" source="aLNv6BE2xDQIH31KTYfQ-31" target="aLNv6BE2xDQIH31KTYfQ-34">
          <mxGeometry relative="1" as="geometry" />
        </mxCell>
        <mxCell id="aLNv6BE2xDQIH31KTYfQ-31" value="Начало" style="ellipse;whiteSpace=wrap;html=1;" vertex="1" parent="1">
          <mxGeometry x="1014" y="1690" width="160" height="50" as="geometry" />
        </mxCell>
        <mxCell id="aLNv6BE2xDQIH31KTYfQ-32" value="Конец" style="ellipse;whiteSpace=wrap;html=1;" vertex="1" parent="1">
          <mxGeometry x="1013.5" y="2771.5" width="160" height="50" as="geometry" />
        </mxCell>
        <mxCell id="aLNv6BE2xDQIH31KTYfQ-33" style="edgeStyle=orthogonalEdgeStyle;rounded=0;orthogonalLoop=1;jettySize=auto;html=1;exitX=0.5;exitY=1;exitDx=0;exitDy=0;entryX=0.5;entryY=0;entryDx=0;entryDy=0;" edge="1" parent="1" source="aLNv6BE2xDQIH31KTYfQ-34" target="aLNv6BE2xDQIH31KTYfQ-36">
          <mxGeometry relative="1" as="geometry" />
        </mxCell>
        <mxCell id="aLNv6BE2xDQIH31KTYfQ-34" value="&lt;span style=&quot;font-size: 12px;&quot;&gt;string[] tokens = Console.ReadLine().Split(&#39; &#39;)&lt;/span&gt;" style="rounded=0;whiteSpace=wrap;html=1;" vertex="1" parent="1">
          <mxGeometry x="981" y="1775" width="226" height="60" as="geometry" />
        </mxCell>
        <mxCell id="aLNv6BE2xDQIH31KTYfQ-35" style="rounded=0;orthogonalLoop=1;jettySize=auto;html=1;exitX=0.5;exitY=1;exitDx=0;exitDy=0;entryX=0.5;entryY=0;entryDx=0;entryDy=0;" edge="1" parent="1" source="aLNv6BE2xDQIH31KTYfQ-36" target="aLNv6BE2xDQIH31KTYfQ-43">
          <mxGeometry relative="1" as="geometry">
            <mxPoint x="1079" y="1924.9999999999998" as="targetPoint" />
          </mxGeometry>
        </mxCell>
        <mxCell id="aLNv6BE2xDQIH31KTYfQ-36" value="&lt;span style=&quot;font-size: 12px;&quot;&gt;B = int.Parse(tokens[0])&lt;/span&gt;" style="rounded=0;whiteSpace=wrap;html=1;" vertex="1" parent="1">
          <mxGeometry x="980.5" y="1865" width="227" height="60" as="geometry" />
        </mxCell>
        <mxCell id="aLNv6BE2xDQIH31KTYfQ-37" style="edgeStyle=orthogonalEdgeStyle;rounded=0;orthogonalLoop=1;jettySize=auto;html=1;exitX=0.5;exitY=1;exitDx=0;exitDy=0;entryX=0.5;entryY=0;entryDx=0;entryDy=0;" edge="1" parent="1" source="aLNv6BE2xDQIH31KTYfQ-43" target="aLNv6BE2xDQIH31KTYfQ-44">
          <mxGeometry relative="1" as="geometry">
            <mxPoint x="1079" y="1964.9999999999998" as="sourcePoint" />
            <mxPoint x="1091" y="2035" as="targetPoint" />
          </mxGeometry>
        </mxCell>
        <mxCell id="aLNv6BE2xDQIH31KTYfQ-38" style="edgeStyle=orthogonalEdgeStyle;rounded=0;orthogonalLoop=1;jettySize=auto;html=1;exitX=0.5;exitY=1;exitDx=0;exitDy=0;entryX=0.5;entryY=0;entryDx=0;entryDy=0;" edge="1" parent="1" source="aLNv6BE2xDQIH31KTYfQ-44" target="aLNv6BE2xDQIH31KTYfQ-46">
          <mxGeometry relative="1" as="geometry">
            <mxPoint x="1096" y="2137.5" as="sourcePoint" />
            <mxPoint x="1096" y="2167.5" as="targetPoint" />
          </mxGeometry>
        </mxCell>
        <mxCell id="aLNv6BE2xDQIH31KTYfQ-39" value="" style="group" vertex="1" connectable="0" parent="1">
          <mxGeometry x="1004" y="2410" width="180" height="40" as="geometry" />
        </mxCell>
        <mxCell id="aLNv6BE2xDQIH31KTYfQ-40" value="" style="verticalLabelPosition=bottom;verticalAlign=top;html=1;shape=hexagon;perimeter=hexagonPerimeter2;arcSize=6;size=0.27;" vertex="1" parent="aLNv6BE2xDQIH31KTYfQ-39">
          <mxGeometry width="180" height="40" as="geometry" />
        </mxCell>
        <mxCell id="aLNv6BE2xDQIH31KTYfQ-41" value="i = 0; i &amp;lt; K; i++" style="text;html=1;align=center;verticalAlign=middle;resizable=0;points=[];autosize=1;strokeColor=none;fillColor=none;" vertex="1" parent="aLNv6BE2xDQIH31KTYfQ-39">
          <mxGeometry x="40" y="5" width="100" height="30" as="geometry" />
        </mxCell>
        <mxCell id="aLNv6BE2xDQIH31KTYfQ-42" value="&lt;font style=&quot;font-size: 30px;&quot;&gt;&lt;b style=&quot;&quot;&gt;Блоксхема #1&lt;/b&gt;&lt;/font&gt;" style="text;html=1;align=center;verticalAlign=middle;resizable=0;points=[];autosize=1;strokeColor=none;fillColor=none;" vertex="1" parent="1">
          <mxGeometry x="986" y="1590" width="230" height="50" as="geometry" />
        </mxCell>
        <mxCell id="aLNv6BE2xDQIH31KTYfQ-43" value="R = int.Parse(tokens[1])" style="rounded=0;whiteSpace=wrap;html=1;" vertex="1" parent="1">
          <mxGeometry x="980" y="1957.5" width="227" height="60" as="geometry" />
        </mxCell>
        <mxCell id="aLNv6BE2xDQIH31KTYfQ-44" value="Y = int.Parse(tokens[2])" style="rounded=0;whiteSpace=wrap;html=1;" vertex="1" parent="1">
          <mxGeometry x="980.5" y="2050" width="227" height="60" as="geometry" />
        </mxCell>
        <mxCell id="aLNv6BE2xDQIH31KTYfQ-45" style="edgeStyle=orthogonalEdgeStyle;rounded=0;orthogonalLoop=1;jettySize=auto;html=1;exitX=0.5;exitY=1;exitDx=0;exitDy=0;entryX=0.5;entryY=0;entryDx=0;entryDy=0;" edge="1" parent="1" source="aLNv6BE2xDQIH31KTYfQ-46" target="aLNv6BE2xDQIH31KTYfQ-48">
          <mxGeometry relative="1" as="geometry" />
        </mxCell>
        <mxCell id="aLNv6BE2xDQIH31KTYfQ-46" value="[&quot;Blue&quot;] = B,&lt;span style=&quot;color: light-dark(rgb(0, 0, 0), rgb(255, 255, 255)); background-color: transparent;&quot;&gt;&amp;nbsp;[&quot;Red&quot;] = R,&lt;/span&gt;&lt;span style=&quot;color: light-dark(rgb(0, 0, 0), rgb(255, 255, 255)); background-color: transparent;&quot;&gt;[&quot;Yellow&quot;] = Y&lt;/span&gt;" style="rounded=0;whiteSpace=wrap;html=1;" vertex="1" parent="1">
          <mxGeometry x="980.5" y="2145" width="227" height="60" as="geometry" />
        </mxCell>
        <mxCell id="aLNv6BE2xDQIH31KTYfQ-47" style="edgeStyle=orthogonalEdgeStyle;rounded=0;orthogonalLoop=1;jettySize=auto;html=1;exitX=0.5;exitY=1;exitDx=0;exitDy=0;entryX=0.5;entryY=0;entryDx=0;entryDy=0;" edge="1" parent="1" source="aLNv6BE2xDQIH31KTYfQ-48" target="aLNv6BE2xDQIH31KTYfQ-50">
          <mxGeometry relative="1" as="geometry" />
        </mxCell>
        <mxCell id="aLNv6BE2xDQIH31KTYfQ-48" value="K = int.Parse(Console.ReadLine())" style="rounded=0;whiteSpace=wrap;html=1;" vertex="1" parent="1">
          <mxGeometry x="981" y="2230" width="227" height="60" as="geometry" />
        </mxCell>
        <mxCell id="aLNv6BE2xDQIH31KTYfQ-49" style="edgeStyle=orthogonalEdgeStyle;rounded=0;orthogonalLoop=1;jettySize=auto;html=1;exitX=0.5;exitY=1;exitDx=0;exitDy=0;entryX=0.5;entryY=0;entryDx=0;entryDy=0;" edge="1" parent="1" source="aLNv6BE2xDQIH31KTYfQ-50" target="aLNv6BE2xDQIH31KTYfQ-40">
          <mxGeometry relative="1" as="geometry" />
        </mxCell>
        <mxCell id="aLNv6BE2xDQIH31KTYfQ-50" value="ways = 1" style="rounded=0;whiteSpace=wrap;html=1;" vertex="1" parent="1">
          <mxGeometry x="981" y="2318" width="227" height="60" as="geometry" />
        </mxCell>
        <mxCell id="aLNv6BE2xDQIH31KTYfQ-51" style="edgeStyle=orthogonalEdgeStyle;rounded=0;orthogonalLoop=1;jettySize=auto;html=1;exitX=0.5;exitY=1;exitDx=0;exitDy=0;entryX=0.5;entryY=0;entryDx=0;entryDy=0;" edge="1" parent="1" source="aLNv6BE2xDQIH31KTYfQ-52" target="aLNv6BE2xDQIH31KTYfQ-54">
          <mxGeometry relative="1" as="geometry" />
        </mxCell>
        <mxCell id="aLNv6BE2xDQIH31KTYfQ-52" value="color = Console.ReadLine().Trim()" style="rounded=0;whiteSpace=wrap;html=1;" vertex="1" parent="1">
          <mxGeometry x="980" y="2485" width="227" height="60" as="geometry" />
        </mxCell>
        <mxCell id="aLNv6BE2xDQIH31KTYfQ-53" style="edgeStyle=orthogonalEdgeStyle;rounded=0;orthogonalLoop=1;jettySize=auto;html=1;exitX=0.5;exitY=1;exitDx=0;exitDy=0;entryX=0;entryY=0.5;entryDx=0;entryDy=0;" edge="1" parent="1" source="aLNv6BE2xDQIH31KTYfQ-54" target="aLNv6BE2xDQIH31KTYfQ-40">
          <mxGeometry relative="1" as="geometry">
            <Array as="points">
              <mxPoint x="1094" y="2650" />
              <mxPoint x="960" y="2650" />
              <mxPoint x="960" y="2430" />
            </Array>
          </mxGeometry>
        </mxCell>
        <mxCell id="aLNv6BE2xDQIH31KTYfQ-54" value="ways *= colorCount[color]" style="rounded=0;whiteSpace=wrap;html=1;" vertex="1" parent="1">
          <mxGeometry x="980" y="2570" width="227" height="60" as="geometry" />
        </mxCell>
        <mxCell id="aLNv6BE2xDQIH31KTYfQ-55" style="edgeStyle=orthogonalEdgeStyle;rounded=0;orthogonalLoop=1;jettySize=auto;html=1;exitX=0.5;exitY=1;exitDx=0;exitDy=0;entryX=0.5;entryY=0;entryDx=0;entryDy=0;" edge="1" parent="1" source="aLNv6BE2xDQIH31KTYfQ-56" target="aLNv6BE2xDQIH31KTYfQ-32">
          <mxGeometry relative="1" as="geometry" />
        </mxCell>
        <mxCell id="aLNv6BE2xDQIH31KTYfQ-56" value="Console.WriteLine(ways)" style="rounded=0;whiteSpace=wrap;html=1;" vertex="1" parent="1">
          <mxGeometry x="980.5" y="2690" width="227" height="60" as="geometry" />
        </mxCell>
        <mxCell id="aLNv6BE2xDQIH31KTYfQ-57" style="edgeStyle=orthogonalEdgeStyle;rounded=0;orthogonalLoop=1;jettySize=auto;html=1;exitX=1;exitY=0.5;exitDx=0;exitDy=0;entryX=0.5;entryY=0;entryDx=0;entryDy=0;" edge="1" parent="1" source="aLNv6BE2xDQIH31KTYfQ-40" target="aLNv6BE2xDQIH31KTYfQ-56">
          <mxGeometry relative="1" as="geometry">
            <Array as="points">
              <mxPoint x="1220" y="2430" />
              <mxPoint x="1220" y="2660" />
              <mxPoint x="1094" y="2660" />
            </Array>
          </mxGeometry>
        </mxCell>
        <mxCell id="aLNv6BE2xDQIH31KTYfQ-58" style="edgeStyle=orthogonalEdgeStyle;rounded=0;orthogonalLoop=1;jettySize=auto;html=1;exitX=0.5;exitY=1;exitDx=0;exitDy=0;entryX=0.5;entryY=0;entryDx=0;entryDy=0;" edge="1" parent="1" source="aLNv6BE2xDQIH31KTYfQ-40" target="aLNv6BE2xDQIH31KTYfQ-52">
          <mxGeometry relative="1" as="geometry" />
        </mxCell>
      </root>
    </mxGraphModel>
  </diagram>
</mxfile>
